<svg xmlns="http://www.w3.org/2000/svg" viewBox="0 0 230 230.9525"><defs><style>.a{fill:#333;}</style></defs><title>origin_logo</title><path class="a" d="M40.758.3099a1.51176,1.51176,0,0,0-2.11479,2.11479A125.44192,125.44192,0,0,1,62.83945,76.66654a125.44194,125.44194,0,0,1-24.19622,74.24185,1.51176,1.51176,0,0,0,2.11479,2.11479,125.99715,125.99715,0,0,1,148.48407.00027,1.51169,1.51169,0,0,0,2.11469-2.1147,125.99717,125.99717,0,0,1-.00027-148.48406A1.51176,1.51176,0,0,0,189.24172.3099a125.44191,125.44191,0,0,1-74.24185,24.19621A125.44194,125.44194,0,0,1,40.758.3099Z"/><path class="a" d="M0,186.97406H7.4209v16.86207H26.71672V186.97406h7.4209v42.39122h-7.4209V210.24853H7.4209v19.11675H0Z"/><path class="a" d="M39.47967,186.97406H69.99678v6.41241H46.90138v11.10246H68.27525v6.05588H46.90138v12.40806H70.4119v6.41241H39.47967Z"/><path class="a" d="M75.39905,186.97406h7.83684l19.35524,31.23015h.118V186.97406h7.06521v42.39122h-7.83684l-19.295-31.16992h-.17825v31.16992H75.39905Z"/><path class="a" d="M114.70209,186.97406h7.83684L141.895,218.20421h.11721V186.97406h7.0652v42.39122h-7.83684l-19.29419-31.16992h-.17907v31.16992h-7.0652Z"/><path class="a" d="M199.06776,186.97406h30.51549v6.41241H206.48948v11.10246h21.37305v6.05588H206.48948v12.40806H230v6.41241H199.06776Z"/><path class="a" d="M177.12168,207.56245h17.91371V208.995a29.61,29.61,0,0,1-1.15094,8.64755,18.39181,18.39181,0,0,1-3.78982,6.515,19.64246,19.64246,0,0,1-15.36111,6.795,21.11723,21.11723,0,0,1-15.58415-6.57031,22.63068,22.63068,0,0,1,25.6659-36.363,27.36255,27.36255,0,0,1,8.28289,6.73962l-4.66076,4.46377q-5.33553-7.10344-13.00062-7.10427a15.53511,15.53511,0,0,0-11.542,4.74541,15.84535,15.84535,0,0,0-4.66075,11.682,16.29025,16.29025,0,0,0,15.72414,16.28578A13.07158,13.07158,0,0,0,183.635,221.574a11.58219,11.58219,0,0,0,4.2961-7.86289H177.12168Z"/></svg>